<?xml version="1.0" encoding="UTF-8"?>
<!DOCTYPE svg  PUBLIC '-//W3C//DTD SVG 1.1//EN'  'http://www.w3.org/Graphics/SVG/1.1/DTD/svg11.dtd'>
<svg enable-background="new 0 0 50 50" version="1.1" viewBox="0 0 50 50" xml:space="preserve" xmlns="http://www.w3.org/2000/svg">
<path d="m8.667 15h30c0.552 0 1-0.447 1-1s-0.448-1-1-1h-30c-0.552 0-1 0.447-1 1s0.447 1 1 1z" fill="#231F20"/>
<path d="m8.667 37h30c0.552 0 1-0.447 1-1s-0.448-1-1-1h-30c-0.552 0-1 0.447-1 1s0.447 1 1 1z" fill="#231F20"/>
<path d="m8.667 26h30c0.552 0 1-0.447 1-1s-0.448-1-1-1h-30c-0.552 0-1 0.447-1 1s0.447 1 1 1z" fill="#231F20"/>
</svg>
